<svg xmlns="http://www.w3.org/2000/svg" width="64" height="64" viewBox="0 0 64 64" fill="none">
  <path d="M47.7334 29.0666C39.2 24 24.9334 23.4666 16.8 26C15.4667 26.4 14.1334 25.6 13.7334 24.4C13.3334 23.0666 14.1334 21.7333 15.3334 21.3333C24.8 18.5333 40.4 19.0666 50.2667 24.9333C51.4667 25.6 51.8667 27.2 51.2 28.4C50.5334 29.3333 48.9334 29.7333 47.7334 29.0666ZM47.4667 36.5333C46.8 37.4666 45.6 37.8666 44.6667 37.2C37.4667 32.8 26.5334 31.4666 18.1334 34.1333C17.0667 34.4 15.8667 33.8666 15.6 32.8C15.3334 31.7333 15.8667 30.5333 16.9334 30.2666C26.6667 27.3333 38.6667 28.8 46.9334 33.8666C47.7334 34.2666 48.1334 35.6 47.4667 36.5333ZM44.2667 43.8666C43.7334 44.6666 42.8 44.9333 42 44.4C35.7334 40.5333 27.8667 39.7333 18.5334 41.8666C17.6 42.1333 16.8 41.4666 16.5334 40.6666C16.2667 39.7333 16.9334 38.9333 17.7334 38.6666C27.8667 36.4 36.6667 37.3333 43.6 41.6C44.5334 42 44.6667 43.0667 44.2667 43.8666ZM32 5.33331C28.4981 5.33331 25.0305 6.02307 21.7951 7.36319C18.5598 8.70332 15.6201 10.6676 13.1439 13.1438C8.14289 18.1448 5.33337 24.9275 5.33337 32C5.33337 39.0724 8.14289 45.8552 13.1439 50.8562C15.6201 53.3324 18.5598 55.2966 21.7951 56.6368C25.0305 57.9769 28.4981 58.6666 32 58.6666C39.0725 58.6666 45.8553 55.8571 50.8562 50.8562C55.8572 45.8552 58.6667 39.0724 58.6667 32C58.6667 28.4981 57.977 25.0304 56.6368 21.7951C55.2967 18.5597 53.3325 15.62 50.8562 13.1438C48.38 10.6676 45.4403 8.70332 42.2049 7.36319C38.9696 6.02307 35.502 5.33331 32 5.33331Z" fill="white"/>
</svg>