<svg xmlns="http://www.w3.org/2000/svg" width="114" height="36" viewBox="0 0 114 36" fill="none">
  <path d="M17.7357 0C7.94081 0 0 8.02417 0 17.9222C0 27.8206 7.94081 35.8441 17.7357 35.8441C27.5317 35.8441 35.4716 27.8206 35.4716 17.9222C35.4716 8.02485 27.5317 0.0009 17.7355 0.0009L17.7357 0ZM25.8693 25.8489C25.7936 25.9742 25.6942 26.0832 25.5768 26.1697C25.4594 26.2562 25.3262 26.3184 25.185 26.3528C25.0437 26.3872 24.8971 26.3931 24.7536 26.3702C24.6101 26.3473 24.4725 26.296 24.3486 26.2193C20.1845 23.6489 14.9422 23.0668 8.76865 24.4922C8.48279 24.5578 8.18281 24.5062 7.93464 24.3485C7.68647 24.1907 7.51042 23.9399 7.44518 23.6511C7.41267 23.5081 7.40839 23.36 7.4326 23.2153C7.45681 23.0707 7.50902 22.9322 7.58625 22.808C7.66348 22.6837 7.76421 22.5761 7.88267 22.4912C8.00112 22.4064 8.13498 22.346 8.27658 22.3135C15.0326 20.7536 20.8277 21.4252 25.5028 24.3124C25.6268 24.3889 25.7346 24.4894 25.8201 24.6081C25.9056 24.7268 25.9671 24.8613 26.0012 25.004C26.0352 25.1468 26.041 25.2949 26.0184 25.4399C25.9957 25.5849 25.945 25.7239 25.8691 25.8491M28.04 20.9691C27.6394 21.6266 26.7882 21.8342 26.1378 21.4297C21.3708 18.4687 14.1035 17.611 8.46472 19.3408C8.11372 19.4481 7.73491 19.4104 7.4114 19.2358C7.0879 19.0613 6.84613 18.7642 6.73914 18.4097C6.63333 18.0551 6.67096 17.6725 6.84379 17.3459C7.01662 17.0192 7.31055 16.7751 7.66116 16.6671C14.1024 14.692 22.1098 15.6487 27.5844 19.0483C28.2346 19.4528 28.4401 20.3132 28.0398 20.9693L28.04 20.9691ZM28.2261 15.8875C22.5105 12.4565 13.0793 12.141 7.62175 13.815C6.74537 14.0837 5.81868 13.5837 5.55327 12.6981C5.42559 12.2727 5.47031 11.8134 5.67761 11.4213C5.88491 11.0291 6.23782 10.7362 6.65876 10.607C12.9236 8.685 23.3384 9.05625 29.9194 13.0043C30.107 13.1165 30.2708 13.2649 30.4015 13.4411C30.5322 13.6173 30.6273 13.8178 30.6812 14.0312C30.7351 14.2446 30.7468 14.4666 30.7156 14.6845C30.6845 14.9025 30.6111 15.1121 30.4997 15.3013C30.0339 16.0978 29.013 16.3604 28.2272 15.8875H28.2261ZM48.2527 16.5449C45.1903 15.8069 44.6461 15.2892 44.6461 14.2009C44.6461 13.1726 45.6033 12.4808 47.0286 12.4808C48.4095 12.4808 49.7777 13.0064 51.2136 14.0879C51.2559 14.1206 51.3109 14.1336 51.3639 14.1251C51.3906 14.1212 51.4162 14.1119 51.4391 14.0977C51.4621 14.0835 51.482 14.0647 51.4975 14.0425L52.9926 11.9126C53.0222 11.8704 53.0347 11.8184 53.0276 11.7672C53.0206 11.716 52.9944 11.6694 52.9546 11.637C51.2455 10.2517 49.3224 9.57825 47.0731 9.57825C43.7671 9.57825 41.4566 11.5832 41.4566 14.4522C41.4566 17.5286 43.4494 18.6181 46.8932 19.4589C49.8222 20.1409 50.3176 20.7122 50.3176 21.7337C50.3176 22.8659 49.3179 23.5699 47.7086 23.5699C45.9211 23.5699 44.4618 22.9601 42.831 21.5345C42.7904 21.4999 42.7381 21.4823 42.685 21.4855C42.6585 21.4873 42.6327 21.4945 42.609 21.5066C42.5853 21.5187 42.5643 21.5354 42.5472 21.5559L40.8699 23.5719C40.8362 23.6123 40.8194 23.6644 40.823 23.7171C40.8265 23.7698 40.8502 23.8191 40.889 23.8545C42.7865 25.5668 45.1204 26.4699 47.6406 26.4699C51.2031 26.4699 53.5052 24.503 53.5052 21.4576C53.5114 18.8879 51.9889 17.4647 48.2592 16.5479L48.2527 16.5449ZM61.5658 13.493C60.0219 13.493 58.7554 14.1077 57.7092 15.3673V13.9498C57.7092 13.8377 57.6201 13.7466 57.5101 13.7466H54.7674C54.7144 13.7469 54.6637 13.7684 54.6264 13.8065C54.5891 13.8445 54.5682 13.896 54.5684 13.9496V29.7016C54.5684 29.8127 54.6574 29.9048 54.7674 29.9048H57.5101C57.5631 29.9043 57.6138 29.8827 57.6511 29.8447C57.6884 29.8066 57.7093 29.7551 57.7092 29.7016V24.7298C58.7554 25.9133 60.0219 26.4933 61.5656 26.4933C64.4356 26.4933 67.3413 24.2613 67.3413 19.994C67.3455 15.7257 64.4396 13.4928 61.5678 13.4928L61.5658 13.493ZM64.1517 19.994C64.1517 22.1659 62.828 23.6833 60.9303 23.6833C59.056 23.6833 57.6413 22.0975 57.6413 19.994C57.6413 17.8902 59.056 16.3046 60.9303 16.3046C62.7962 16.3046 64.1517 17.8558 64.1517 19.994ZM74.7856 13.493C71.0899 13.493 68.1947 16.3685 68.1947 20.0405C68.1947 23.6727 71.0708 26.5169 74.741 26.5169C78.4494 26.5169 81.353 23.6513 81.353 19.994C81.353 16.349 78.4685 13.4937 74.7856 13.4937V13.493ZM74.7856 23.7047C72.8202 23.7047 71.3377 22.1081 71.3377 19.9928C71.3377 17.8679 72.7694 16.3258 74.741 16.3258C76.7191 16.3258 78.21 17.9217 78.21 20.0392C78.21 22.1639 76.7699 23.7047 74.7856 23.7047ZM89.2442 13.7466H86.2263V10.629C86.2263 10.5172 86.1373 10.4261 86.0273 10.4261H83.2846C83.2313 10.4262 83.1802 10.4476 83.1425 10.4856C83.1048 10.5236 83.0835 10.5752 83.0833 10.629V13.7464H81.7661C81.7131 13.7467 81.6623 13.7682 81.625 13.8063C81.5877 13.8443 81.5668 13.8958 81.567 13.9493V16.3307C81.5668 16.3843 81.5877 16.4358 81.625 16.4739C81.6623 16.512 81.713 16.5335 81.7661 16.5339H83.0833V22.6967C83.0833 25.1856 84.3097 26.4483 86.7304 26.4483C87.713 26.4483 88.5284 26.2427 89.2972 25.8019C89.3283 25.7847 89.3542 25.7592 89.3721 25.7283C89.39 25.6974 89.3993 25.6622 89.3989 25.6264V23.3577C89.3988 23.3234 89.39 23.2896 89.3733 23.2597C89.3566 23.2298 89.3326 23.2046 89.3036 23.1867C89.2748 23.168 89.2415 23.1573 89.2073 23.1558C89.173 23.1542 89.139 23.1619 89.1086 23.1779C88.5813 23.4457 88.071 23.5697 87.499 23.5697C86.6202 23.5697 86.2263 23.1651 86.2263 22.262V16.5353H89.2442C89.2972 16.535 89.348 16.5134 89.3853 16.4753C89.4227 16.4372 89.4435 16.3857 89.4432 16.3321V13.9507C89.4442 13.9241 89.4397 13.8976 89.4302 13.8728C89.4207 13.8481 89.4063 13.8255 89.3879 13.8065C89.3695 13.7875 89.3475 13.7725 89.3231 13.7623C89.2988 13.7522 89.2727 13.7471 89.2464 13.7475L89.2442 13.7466ZM99.7574 13.7588V13.3758C99.7574 12.2495 100.185 11.7473 101.142 11.7473C101.715 11.7473 102.174 11.862 102.689 12.0353C102.719 12.0455 102.751 12.0483 102.782 12.0434C102.814 12.0385 102.844 12.0261 102.869 12.0072C102.895 11.9883 102.916 11.9635 102.93 11.9348C102.944 11.9061 102.952 11.8743 102.951 11.8422L102.951 9.50738C102.952 9.46376 102.938 9.42116 102.913 9.38603C102.887 9.35091 102.851 9.32518 102.809 9.31275C102.267 9.1494 101.572 8.982 100.53 8.982C97.9995 8.982 96.6589 10.4231 96.6589 13.1481V13.7345H95.3416C95.2884 13.7346 95.2373 13.756 95.1996 13.794C95.1619 13.832 95.1406 13.8836 95.1404 13.9374V16.331C95.1404 16.4428 95.2316 16.5341 95.3416 16.5341H96.6589V26.0375C96.6589 26.1509 96.7502 26.2409 96.8602 26.2409H99.6006C99.7128 26.2409 99.8019 26.1509 99.8019 26.0375V16.5346H102.362L106.285 26.0372C105.84 27.0347 105.401 27.2336 104.804 27.2336C104.321 27.2336 103.811 27.0882 103.292 26.7993C103.243 26.7742 103.186 26.7688 103.133 26.7842C103.107 26.7931 103.083 26.8074 103.063 26.8262C103.042 26.845 103.026 26.8679 103.015 26.8934L102.085 28.9544C102.064 29.0012 102.061 29.0544 102.077 29.1034C102.093 29.1523 102.127 29.1931 102.172 29.2176C103.142 29.7484 104.016 29.9752 105.099 29.9752C107.123 29.9752 108.244 29.0207 109.228 26.4569L113.985 14.036C113.998 14.0052 114.002 13.9719 113.999 13.9389C113.995 13.906 113.983 13.8745 113.964 13.8474C113.946 13.8202 113.922 13.7979 113.894 13.7825C113.865 13.7672 113.833 13.7591 113.801 13.7592H110.946C110.904 13.759 110.863 13.772 110.829 13.7964C110.795 13.8208 110.769 13.8554 110.755 13.8953L107.831 22.3349L104.628 13.8897C104.614 13.8514 104.589 13.8185 104.555 13.7952C104.522 13.7719 104.483 13.7593 104.442 13.7592H99.7574V13.7588ZM93.6621 13.7466H90.9195C90.8662 13.7468 90.8153 13.7683 90.7776 13.8063C90.74 13.8443 90.7187 13.8958 90.7184 13.9496V26.0375C90.7184 26.1509 90.8095 26.2409 90.9195 26.2409H93.6621C93.7724 26.2409 93.8634 26.1509 93.8634 26.0375V13.9505C93.8635 13.9237 93.8584 13.8972 93.8483 13.8725C93.8382 13.8478 93.8234 13.8254 93.8046 13.8065C93.7859 13.7876 93.7637 13.7727 93.7393 13.7625C93.7148 13.7523 93.6886 13.7472 93.6621 13.7473V13.7466ZM92.3066 8.2422C91.22 8.2422 90.3392 9.13095 90.3392 10.2285C90.3392 10.4896 90.3901 10.7481 90.4889 10.9893C90.5878 11.2306 90.7327 11.4497 90.9154 11.6344C91.0981 11.819 91.315 11.9654 91.5537 12.0653C91.7924 12.1652 92.0482 12.2166 92.3066 12.2166C93.3932 12.2166 94.272 11.327 94.272 10.2285C94.2719 9.70178 94.0648 9.19666 93.6962 8.82419C93.3277 8.45171 92.8278 8.24238 92.3066 8.2422Z" fill="white"/>
</svg>